<svg viewBox="0 0 80 80" fill="none" xmlns="http://www.w3.org/2000/svg">
  <circle cx="40" cy="40" r="40" fill="#f7931a"/>
  <path d="M52.5 34.2c.6-4-2.4-6.2-6.6-7.6l1.4-5.5-3.3-.8-1.3 5.3c-.9-.2-1.8-.4-2.7-.7l1.3-5.3-3.3-.8-1.4 5.5c-.7-.2-1.4-.3-2.1-.5l-4.5-1.1-.9 3.5s2.4.6 2.4.6c1.3.3 1.6 1.2 1.5 1.9l-1.5 6.2c.1 0 .2.1.3.1l-.3-.1-2.2 8.7c-.2.4-.6 1.1-1.6.8 0 0-2.4-.6-2.4-.6l-1.6 3.8 4.3 1.1c.8.2 1.6.4 2.3.6l-1.4 5.6 3.3.8 1.4-5.5c.9.2 1.8.5 2.7.7l-1.4 5.5 3.3.8 1.4-5.6c5.8 1.1 10.1.7 12-4.6 1.5-4.2-.1-6.7-3.1-8.3 2.2-.5 3.9-2 4.3-5zm-7.7 10.8c-1.1 4.2-8.3 1.9-10.6 1.4l1.9-7.5c2.4.6 9.9 1.7 8.7 6.1zm1.1-10.9c-1 3.9-7 1.9-8.9 1.4l1.7-6.8c2 .5 8.3 1.4 7.2 5.4z" fill="#fff"/>
</svg>
